# AST/ASF file generated using VICON BodyLanguage
# -----------------------------------------------
:version 1.10
:name VICON
:units
  mass 1.0
  length 0.45
  angle deg
:documentation
   .ast/.asf automatically generated from VICON data using
   VICON BodyBuilder and BodyLanguage model FoxedUp or BRILLIANT.MOD
:root
   order TX TY TZ RX RY RZ
   axis XYZ
   position 0 0 0  
   orientation 0 0 0 
:bonedata
  begin
     id 1 
     name lhipjoint
     direction 0.611804 -0.747784 0.257906 
     length 2.29243 
     axis 0 0 0  XYZ
  end
  begin
     id 2 
     name lfemur
     direction 0.34202 -0.939693 0  
     length 7.31159  
     axis 0 0 20  XYZ
    dof rx ry rz
    limits (-160.0 20.0)
           (-70.0 70.0)
           (-60.0 70.0)
  end
  begin
     id 3 
     name ltibia
     direction 0.34202 -0.939693 0   
     length 7.33391   
     axis 0 0 20   XYZ
    dof rx
    limits (-10.0 170.0)
  end
  begin
     id 4 
     name lfoot
     direction 0.122263 -0.335914 0.933924   
     length 1.76083   
     axis -90 7.62852e-016 20   XYZ
    dof rx rz
    limits (-45.0 90.0)
           (-70.0 20.0)
  end
  begin
     id 5 
     name ltoes
     direction 1.53533e-011 -4.2177e-011 1   
     length 0.879206   
     axis -90 7.62852e-016 20   XYZ
    dof rx
    limits (-90.0 20.0)
  end
  begin
     id 6 
     name rhipjoint
     direction -0.646469 -0.721248 0.248754   
     length 2.37677  
     axis 0 0 0  XYZ 
  end
  begin
     id 7 
     name rfemur
     direction -0.34202 -0.939693 0   
     length 7.18623   
     axis 0 0 -20   XYZ
    dof rx ry rz
    limits (-160.0 20.0)
           (-70.0 70.0)
           (-70.0 60.0)
  end
  begin
     id 8 
     name rtibia
     direction -0.34202 -0.939693 0   
     length 7.36567   
     axis 0 0 -20   XYZ
    dof rx
    limits (-10.0 170.0)
 end
 begin
     id 9 
     name rfoot
     direction -0.126681 -0.348054 0.928876   
     length 1.71902  
     axis -90 -7.62852e-016 -20   XYZ
    dof rx rz
    limits (-45.0 90.0)
           (-20.0 70.0)
  end
  begin
     id 10 
     name rtoes
     direction -1.53551e-011 -4.21898e-011 1   
     length 0.857792   
     axis -90 -7.62852e-016 -20   XYZ
    dof rx
    limits (-90.0 20.0)
  end
  begin
     id 11 
     name lowerback
     direction 0.0106509 0.999778 0.0181844   
     length 2.07668   
     axis 0 0 0   XYZ
    dof rx ry rz
    limits (-20.0 45.0)
           (-30.0 30.0)
           (-30.0 30.0)
  end
  begin
     id 12 
     name upperback
     direction -0.00456018 0.999989 -0.000590935   
     length 2.08011   
     axis 0 0 0   XYZ
    dof rx ry rz
    limits (-20.0 45.0)
           (-30.0 30.0)
           (-30.0 30.0)
  end
  begin
     id 13 
     name thorax
     direction -0.00910382 0.999916 -0.00923765   
     length 2.07397   
     axis 0 0 0   XYZ
    dof rx ry rz
    limits (-20.0 45.0)
           (-30.0 30.0)
           (-30.0 30.0)
  end
  begin
     id 14 
     name lowerneck
     direction 0.00171967 0.99778 0.0665733   
     length 1.67556   
     axis 0 0 0   XYZ
    dof rx ry rz
    limits (-20.0 45.0)
           (-30.0 30.0)
           (-30.0 30.0)
  end
  begin
     id 15 
     name upperneck
     direction -0.0143166 0.991302 -0.130828   
     length 1.68462   
     axis 0 0 0   XYZ
    dof rx ry rz
    limits (-20.0 45.0)
           (-30.0 30.0)
           (-30.0 30.0)
  end
  begin
     id 16
     name head
     direction -0.00606378 0.998665 -0.0512995  
     length 1.69269  
     axis 0 0 0   XYZ
    dof rx ry rz
    limits (-20.0 45.0)
           (-30.0 30.0)
           (-30.0 30.0)
  end
  begin
     id 17 
     name lclavicle
     direction 0.9638 0.179341 0.197297  
     length 4.12888  
     axis 0 0 0   XYZ
    dof ry rz
    limits (-20.0 10.0)
           (0.0 20.0)
  end
  begin
     id 18 
     name lhumerus
     direction 1 -4.48972e-011 -2.47351e-027   
     length 5.01834   
     axis -180 -30 -90   XYZ
    dof rx ry rz
    limits (-60.0 90.0)
           (-90.0 90.0)
           (-90.0 90.0)
  end
  begin
     id 19
     name lradius
     direction 1 -4.48965e-011 1.51591e-026   
     length 3.4869   
     axis -180 -30 -90   XYZ
    dof rx
    limits (-10.0 170.0)
  end
  begin
     id 20
     name lwrist
     direction 1 -4.48957e-011 2.70032e-026   
     length 1.74345   
     axis -1.81515e-014 90 90   XYZ
    dof ry
    limits (-180.0 0.0)
 end
  begin
     id 21 
     name lhand
     direction 1 -4.48951e-011 5.40064e-026   
     length 0.76799   
     axis -3.44607e-014 90 90   XYZ
    dof rx rz
    limits (-90.0 90.0)
           (-45.0 45.0)
  end
  begin
     id 22 
     name lfingers
     direction 1 -4.48971e-011 1.08013e-025   
     length 0.619174   
     axis -6.89214e-014 90 90   XYZ
    dof rx
    limits (0.0 90.0)
  end
  begin
     id 23
     name lthumb
     direction 0.707107 -6.34931e-011 0.707107   
     length 0.889013   
     axis -90 45 2.85299e-015   XYZ
    dof rx rz
    limits (-45.0 45.0)
           (-45.0 45.0)
  end
  begin
     id 24 
     name rclavicle
     direction -0.961409 0.252588 0.109054   
     length 4.04305  
     axis 0 0 0   XYZ 
    dof ry rz
    limits (-10.0 20.0)
           (-20.0 0.0)
  end
  begin
     id 25 
     name rhumerus
     direction -1 -4.4897e-011 1.33872e-017  
     length 4.70164   
     axis -180 30 90   XYZ
    dof rx ry rz
    limits (-90.0 60.0)
           (-90.0 90.0)
           (-90.0 90.0)
  end
  begin
     id 26 
     name rradius
     direction -1 -4.48954e-011 1.83844e-026   
     length 3.49911   
     axis -180 30 90   XYZ
    dof rx
    limits (-10.0 170.0)
  end
  begin
     id 27 
     name rwrist
     direction -1 -4.49008e-011 2.70032e-026   
     length 1.74955   
     axis -1.81515e-014 -90 -90   XYZ
    dof ry
    limits (-180.0 0.0)
  end
  begin
     id 28
     name rhand
     direction -1 -4.48916e-011 5.40064e-026   
     length 0.739335   
     axis -3.44607e-014 -90 -90   XYZ
    dof rx rz
    limits (-90.0 90.0)
           (-45.0 45.0)
  end
  begin
     id 29
     name rfingers
     direction -1 -4.48987e-011 1.08013e-025   
     length 0.596071   
     axis -6.89214e-014 -90 -90   XYZ
    dof rx
    limits (0.0 90.0)
  end
  begin
     id 30
     name rthumb
     direction -0.707107 -6.34935e-011 0.707107   
     length 0.855843   
     axis -90 -45 -2.85299e-015   XYZ
    dof rx rz
    limits (-45.0 45.0)
           (-45.0 45.0)
  end
:hierarchy
  begin
    root lhipjoint rhipjoint lowerback
    lhipjoint lfemur
    lfemur ltibia
    ltibia lfoot
    lfoot ltoes
    rhipjoint rfemur
    rfemur rtibia
    rtibia rfoot
    rfoot rtoes
    lowerback upperback
    upperback thorax
    thorax lowerneck lclavicle rclavicle
    lowerneck upperneck
    upperneck head
    lclavicle lhumerus
    lhumerus lradius
    lradius lwrist
    lwrist lhand lthumb
    lhand lfingers
    rclavicle rhumerus
    rhumerus rradius
    rradius rwrist
    rwrist rhand rthumb
    rhand rfingers
  end

#!OML:ASF I:\salsa\salsa 7_09\Patient 1\Session 1\dancermale.ASF
:FULLY-SPECIFIED
:DEGREES
212
root 5.6354 16.8944 6.33391 197.179 23.9867 187.873
lowerback -4.9769 8.85103 2.64873
upperback -1.09109 11.7396 1.29492
thorax 1.86756 5.91231 0.671035
lowerneck -8.19809 -12.8605 -5.55021
upperneck 18.6912 -20.5979 9.20273
head 8.72437 -9.81665 1.59516
rclavicle 1.72446e-014 -5.96354e-015
rhumerus -38.732 26.8749 -110.583
rradius 87.9465
rwrist 9.80973
rhand -31.692 9.28501
rfingers 7.12502
rthumb -4.9513 -20.6371
lclavicle 1.72446e-014 -5.96354e-015
lhumerus -57.0945 1.24956 55.6985
lradius 56.0804
lwrist 68.5734
lhand -8.71021 44.5069
lfingers 7.12502
lthumb 17.2254 73.7635
rfemur -9.64756 -0.748223 20.9863
rtibia 23.7299
rfoot -20.3573 -15.1586
rtoes -21.6415
lfemur -43.9058 -23.4725 -2.49014
ltibia 48.6605
lfoot -24.7703 2.17206
ltoes -12.5512
213
root 5.58392 16.9025 6.26123 197.107 25.1769 187.939
lowerback -4.78753 9.06726 2.53367
upperback -0.884712 12.0265 1.28846
thorax 1.95868 6.05173 0.733721
lowerneck -8.42573 -12.5996 -5.39236
upperneck 18.8286 -20.2023 9.01699
head 8.74194 -9.62163 1.551
rclavicle 6.88789e-014 2.74323e-014
rhumerus -40.1845 25.2084 -109.879
rradius 86.0069
rwrist 11.4819
rhand -33.9173 7.50493
rfingers 7.12502
rthumb -7.09976 -22.356
lclavicle 6.88789e-014 2.74323e-014
lhumerus -59.5128 0.0550869 57.1423
lradius 55.3201
lwrist 67.8574
lhand -9.35987 44.7373
lfingers 7.12502
lthumb 16.6 74.0473
rfemur -9.44751 0.0736084 20.4641
rtibia 23.6449
rfoot -19.8656 -14.7909
rtoes -22.3018
lfemur -43.1869 -23.5517 -1.811
ltibia 46.3785
lfoot -24.6726 1.41981
ltoes -10.7703
214
root 5.50306 16.9194 6.16797 196.786 26.1885 187.903
lowerback -4.3603 9.13756 2.70754
upperback -0.645788 12.1133 1.29148
thorax 2.00653 6.09352 0.606965
lowerneck -8.68703 -13.7246 -4.94356
upperneck 19.4415 -19.0864 8.23599
head 8.78742 -8.32985 1.46831
rclavicle -7.49418e-014 -6.75868e-015
rhumerus -41.9195 23.3036 -109.075
rradius 84.0847
rwrist 13.1561
rhand -37.1947 3.17343
rfingers 7.12502
rthumb -10.2625 -26.5562
lclavicle -7.49418e-014 -6.75868e-015
lhumerus -62.0015 -0.744679 59.0593
lradius 54.4713
lwrist 67.1595
lhand -10.3018 44.8199
lfingers 7.12502
lthumb 15.693 74.2035
rfemur -8.95566 0.813016 19.7219
rtibia 23.44
rfoot -19.3853 -14.5219
rtoes -22.4308
lfemur -42.1633 -23.8864 -1.47854
ltibia 44.2963
lfoot -24.4241 0.817082
ltoes -9.49387
215
root 5.40634 16.9363 6.05461 196.444 27.2417 187.766
lowerback -3.94424 9.22359 3.01635
upperback -0.471726 12.2175 1.16432
thorax 2.05029 6.14464 0.280773
lowerneck -8.70194 -13.3044 -4.74145
upperneck 19.6598 -18.4797 7.95392
head 8.77052 -8.04503 1.4287
rclavicle 3.0911e-014 1.27222e-014
rhumerus -43.69 21.0576 -107.732
rradius 82.3605
rwrist 12.4132
rhand -36.8802 2.11011
rfingers 7.12502
rthumb -9.95911 -27.6343
lclavicle 3.0911e-014 1.27222e-014
lhumerus -64.481 -1.73813 61.4783
lradius 53.6904
lwrist 66.8332
lhand -11.1893 44.5957
lfingers 7.12502
lthumb 14.8381 74.0444
rfemur -8.42351 1.62737 18.7946
rtibia 23.1141
rfoot -18.9187 -14.3862
rtoes -22.7526
lfemur -40.8909 -24.0419 -1.56775
ltibia 42.5011
lfoot -24.1574 0.439507
ltoes -9.18344
216
root 5.31271 16.9527 5.92645 196.093 28.5736 187.464
lowerback -3.64626 9.3649 3.08575
upperback -0.318785 12.4007 0.942925
thorax 2.11228 6.23294 0.00609249
lowerneck -8.76122 -12.9025 -4.37749
upperneck 19.9357 -17.918 7.64673
head 8.76945 -7.7646 1.34731
rclavicle -4.25399e-014 3.18055e-015
rhumerus -45.659 19.121 -106.209
rradius 80.5306
rwrist 11.7668
rhand -36.4167 0.340788
rfingers 7.12502
rthumb -9.51187 -29.4245
lclavicle -4.25399e-014 3.18055e-015
lhumerus -66.9976 -2.881 64.2741
lradius 53.216
lwrist 67.413
lhand -12.1987 44.422
lfingers 7.12502
lthumb 13.8655 73.9398
rfemur -7.83734 2.69176 17.7374
rtibia 22.5684
rfoot -18.3685 -14.3851
rtoes -22.7012
lfemur -39.1676 -23.6239 -2.23212
ltibia 40.6384
lfoot -24.0305 -0.410752
ltoes -8.53895
217
root 5.19515 16.9637 5.78888 195.887 29.3732 186.92
lowerback -3.87428 9.13413 2.85152
upperback -0.0565977 12.0842 1.04164
thorax 2.43175 6.0734 0.266865
lowerneck -8.91053 -12.3234 -4.26966
upperneck 20.1447 -17.0283 7.07748
head 8.74236 -7.38899 1.25153
rclavicle 4.25399e-014 -4.09496e-014
rhumerus -47.6457 17.8871 -104.102
rradius 78.5855
rwrist 11.477
rhand -35.2965 -1.69868
rfingers 7.12502
rthumb -8.43096 -31.5104
lclavicle 4.25399e-014 -4.09496e-014
lhumerus -69.5997 -2.96418 67.5993
lradius 52.8952
lwrist 68.4655
lhand -13.2577 44.6844
lfingers 7.12502
lthumb 12.8448 74.2692
rfemur -7.47487 3.22956 16.4028
rtibia 21.8923
rfoot -17.7929 -14.711
rtoes -21.8207
lfemur -37.9222 -22.6387 -3.70733
ltibia 39.3083
lfoot -24.3881 0.258912
ltoes -12.6956
218
root 5.07367 16.9854 5.62296 195.34 30.6807 186.657
lowerback -3.70717 9.0188 2.95879
upperback 0.314955 11.921 1.18653
thorax 2.7113 5.99485 0.355201
lowerneck -8.90861 -11.6834 -4.38169
upperneck 20.3049 -16.0715 6.81377
head 8.72121 -6.9698 1.30122
rclavicle 1.23246e-013 8.74653e-015
rhumerus -49.6133 16.5248 -101.852
rradius 76.4549
rwrist 11.8352
rhand -33.5025 -3.18908
rfingers 7.12502
rthumb -6.69927 -33.0631
lclavicle 1.23246e-013 8.74653e-015
lhumerus -72.0393 -2.69367 71.039
lradius 52.6316
lwrist 69.7578
lhand -14.0187 45.2769
lfingers 7.12502
lthumb 12.111 74.9064
rfemur -6.4718 4.13536 15.3682
rtibia 20.9784
rfoot -17.1681 -14.876
rtoes -20.5295
lfemur -35.4871 -20.469 -5.99428
ltibia 37.6728
lfoot -23.9171 0.0674775
ltoes -13.1463
219
root 4.93512 16.9921 5.46278 195.274 31.3706 185.942
lowerback -3.99159 8.72138 2.90436
upperback 0.34807 11.5116 1.09719
thorax 2.902 5.78856 0.315531
lowerneck -8.81599 -11.1512 -4.2156
upperneck 20.3591 -15.2899 6.48927
head 8.63169 -6.62398 1.27478
rclavicle -1.90833e-013 -1.66979e-014
rhumerus -51.7564 15.1401 -99.6351
rradius 74.1821
rwrist 12.6837
rhand -31.931 -4.25242
rfingers 7.12502
rthumb -5.18215 -34.1691
lclavicle -1.90833e-013 -1.66979e-014
lhumerus -74.2259 -2.834 75.1265
lradius 52.4473
lwrist 71.7413
lhand -14.8246 45.5455
lfingers 7.12502
lthumb 11.3339 75.2192
rfemur -6.20404 4.96962 13.8749
rtibia 20.0193
rfoot -16.576 -15.5946
rtoes -17.3561
lfemur -34.9175 -18.6009 -8.09394
ltibia 36.8112
lfoot -23.3566 -0.323645
ltoes -13.9266
220
root 4.7803 17.0087 5.29914 194.811 31.8739 184.939
lowerback -3.94502 8.3296 2.89264
upperback 0.462926 10.9846 0.987261
thorax 3.00293 5.52487 0.1752
lowerneck -8.75796 -10.6205 -4.17449
upperneck 20.4663 -14.4805 6.09523
head 8.57319 -6.27906 1.24124
rclavicle 8.16011e-014 -1.43125e-014
rhumerus -54.0482 14.211 -97.4396
rradius 71.9157
rwrist 13.74
rhand -30.4184 -5.0946
rfingers 7.12502
rthumb -3.72152 -35.0418
lclavicle 8.16011e-014 -1.43125e-014
lhumerus -76.0291 -2.77427 79.6088
lradius 52.2651
lwrist 74.0486
lhand -15.7995 45.598
lfingers 7.12502
lthumb 10.3936 75.3212
rfemur -5.64245 5.82577 12.2208
rtibia 18.9791
rfoot -16.2762 -16.8405
rtoes -11.3139
lfemur -34.432 -17.684 -10.3338
ltibia 36.172
lfoot -22.6626 -0.45236
ltoes -15.0391
221
root 4.62504 17.0217 5.13424 194.697 33.0781 184.167
lowerback -4.20181 8.21827 2.96708
upperback 0.62363 10.8174 0.875797
thorax 3.34348 5.44259 0.0700706
lowerneck -8.93835 -10.1127 -4.1404
upperneck 20.6607 -13.6805 5.552
head 8.58123 -5.94826 1.14226
rclavicle 7.64327e-014 2.78299e-014
rhumerus -56.1845 13.5947 -95.2182
rradius 69.6435
rwrist 14.2467
rhand -28.8217 -6.05019
rfingers 7.12502
rthumb -2.17956 -36.0188
lclavicle 7.64327e-014 2.78299e-014
lhumerus -77.1909 -1.94478 83.4189
lradius 52.0767
lwrist 75.8549
lhand -16.4286 46.34
lfingers 7.12502
lthumb 9.78665 76.0926
rfemur -5.79973 6.75341 10.6962
rtibia 18.3889
rfoot -16.0587 -18.1616
rtoes -4.17165
lfemur -34.1596 -16.6308 -12.2616
ltibia 35.6411
lfoot -22.1667 -0.671173
ltoes -14.9165
222
root 4.47638 17.0351 4.97575 194.508 33.7856 183.33
lowerback -4.40113 7.97039 2.97733
upperback 0.76013 10.4744 0.79621
thorax 3.60341 5.27209 0.000130621
lowerneck -9.20271 -9.63333 -3.84953
upperneck 20.8593 -12.9235 4.82703
head 8.58209 -5.6354 0.934705
rclavicle 7.05686e-014 1.51076e-014
rhumerus -58.3904 13.3504 -93.6987
rradius 67.1624
rwrist 15.5591
rhand -27.0049 -6.56255
rfingers 7.12502
rthumb -0.424795 -36.5419
lclavicle 7.05686e-014 1.51076e-014
lhumerus -77.889 -0.925284 86.8204
lradius 51.985
lwrist 77.6361
lhand -16.7902 47.5077
lfingers 7.12502
lthumb 9.4378 77.2764
rfemur -6.02754 6.71724 9.27044
rtibia 18.1573
rfoot -15.6067 -19.8761
rtoes 1.43915
lfemur -33.9962 -16.1925 -14.0185
ltibia 35.2514
lfoot -21.8443 -1.03241
ltoes -14.0727
223
root 4.35823 17.0626 4.81938 193.951 35.2423 182.86
lowerback -4.11392 7.98822 2.87759
upperback 1.01795 10.5078 0.831725
thorax 3.68783 5.28824 0.0706014
lowerneck -9.44903 -9.21091 -3.52699
upperneck 21.2166 -12.2834 4.30676
head 8.65951 -5.34188 0.773264
rclavicle 4.73108e-014 -1.03368e-014
rhumerus -60.5534 13.0222 -92.6669
rradius 64.4985
rwrist 17.5445
rhand -22.9536 -3.99934
rfingers 7.12502
rthumb 3.48789 -33.9506
lclavicle 4.73108e-014 -1.03368e-014
lhumerus -78.4793 -0.182001 90.4012
lradius 52.191
lwrist 79.925
lhand -17.3713 48.294
lfingers 7.12502
lthumb 8.87702 78.0873
rfemur -6.28787 6.10915 8.43278
rtibia 18.8615
rfoot -15.0117 -21.4888
rtoes 5.16696
lfemur -32.6161 -14.934 -15.6666
ltibia 34.3519
lfoot -21.6582 -1.17283
ltoes -13.7188
224
root 4.23836 17.0831 4.67582 193.807 36.8316 182.47
lowerback -4.09449 8.08653 2.86495
upperback 1.15136 10.6381 0.730261
thorax 3.83659 5.35346 -0.0024965
lowerneck -9.72142 -8.83167 -3.27295
upperneck 21.5508 -11.7463 4.04309
head 8.76574 -5.07707 0.692707
rclavicle -3.47873e-014 2.62396e-014
rhumerus -62.9207 13.092 -92.928
rradius 62.2028
rwrist 18.8702
rhand -21.1822 -4.58707
rfingers 7.12502
rthumb 5.19845 -34.5033
lclavicle -3.47873e-014 2.62396e-014
lhumerus -78.9843 0.335831 93.7838
lradius 52.795
lwrist 82.7407
lhand -18.1949 48.6243
lfingers 7.12502
lthumb 8.08223 78.4498
rfemur -7.80767 3.97971 7.78329
rtibia 21.1082
rfoot -14.815 -23.3591
rtoes 8.41901
lfemur -31.7404 -13.4842 -17.0713
ltibia 33.4138
lfoot -21.5968 -1.10057
ltoes -14.217
